<svg id="Layer_1" data-name="Layer 1" xmlns="http://www.w3.org/2000/svg" xmlns:xlink="http://www.w3.org/1999/xlink" viewBox="0 0 841.89 595.28"><defs><style>.cls-1{fill:url(#New_Gradient_Swatch);}.cls-2{fill:#eaab21;}</style><radialGradient id="New_Gradient_Swatch" cx="309.13" cy="308.87" r="209.02" gradientUnits="userSpaceOnUse"><stop offset="0" stop-color="#298793"/><stop offset="0.01" stop-color="#288490"/><stop offset="0.1" stop-color="#226e7d"/><stop offset="0.2" stop-color="#1e5d6e"/><stop offset="0.33" stop-color="#1a5264"/><stop offset="0.5" stop-color="#194b5e"/><stop offset="1" stop-color="#18495c"/></radialGradient></defs><path class="cls-1" d="M490.12,112.74a224.56,224.56,0,0,0-84.71-33.9l-.66-.14h0c-29.11-5.1-61-5-95.25,2.19a214.29,214.29,0,0,0-47.8,16.22,237.89,237.89,0,0,0-88,72.11c-29.93,40-48.37,91.47-45.19,151.26,0,0,0,.11,0,.16a268.33,268.33,0,0,0,5.12,39.64c7.59,37,24.07,69.34,48,97.5,4.36,5.13,8.88,10.18,13.73,15,59.44,59.55,130.15,78.92,209.89,65.89V435.46a130.8,130.8,0,0,1-66.81,5.06c-3.68-.67-7.25-1.57-10.8-2.51a133.18,133.18,0,0,1-89-77.86,134.42,134.42,0,0,1-8.68-72.21c.47-3,1.11-6,1.79-9,12.69-55.88,60.84-96.83,115.92-102.91a128.94,128.94,0,0,1,40.78,2A137.24,137.24,0,0,1,436,197.79a132.75,132.75,0,0,1,21.67,17.84,131.16,131.16,0,0,1,32.47,56.5Z"/><path class="cls-2" d="M758.74,101.86A224.62,224.62,0,0,0,674,68c-.22,0-.44-.11-.66-.14h0c-29.11-5.1-61-4.95-95.25,2.2a213.61,213.61,0,0,0-47.8,16.22,238.07,238.07,0,0,0-88,72.1c-29.92,40-48.36,91.47-45.18,151.27,0,.05,0,.1,0,.15a268,268,0,0,0,5.13,39.64c7.59,37,24.06,69.34,47.95,97.5,4.36,5.14,8.88,10.18,13.73,15,59.44,59.55,130.15,78.92,209.89,65.9V424.59A130.81,130.81,0,0,1,607,429.65c-3.68-.67-7.25-1.57-10.8-2.52a133.2,133.2,0,0,1-89-77.85,134.63,134.63,0,0,1-8.68-72.21c.47-3.05,1.12-6,1.79-9,12.7-55.88,60.85-96.82,115.93-102.91a129,129,0,0,1,40.78,2,137.22,137.22,0,0,1,47.55,19.76,130.61,130.61,0,0,1,54.14,74.35Z"/></svg>