<svg id="Layer_1" data-name="Layer 1" xmlns="http://www.w3.org/2000/svg" viewBox="0 0 850.39 680.31"><defs><style>.cls-1{fill:#eaab21;}.cls-2{fill:#18495c;}</style></defs><path class="cls-1" d="M452.11,136.14a224.35,224.35,0,0,0-84.7-33.9l-.66-.14h0c-29.11-5.1-61-5-95.26,2.19a213.7,213.7,0,0,0-47.79,16.22,238,238,0,0,0-88,72.11c-29.92,40-48.36,91.47-45.18,151.26,0,.05,0,.1,0,.15a268,268,0,0,0,5.13,39.64c7.59,37,24.06,69.35,48,97.5,4.36,5.14,8.87,10.19,13.72,15.05,59.45,59.54,130.16,78.92,209.9,65.89V458.86a130.81,130.81,0,0,1-66.81,5.06c-3.68-.67-7.25-1.57-10.8-2.52a133.2,133.2,0,0,1-89-77.85,134.52,134.52,0,0,1-8.68-72.21c.47-3,1.12-6,1.79-9,12.7-55.88,60.84-96.83,115.92-102.92a129,129,0,0,1,40.79,2A137.09,137.09,0,0,1,398,221.18a130.49,130.49,0,0,1,54.14,74.35Z"/><path class="cls-2" d="M720.73,125.26A224.58,224.58,0,0,0,636,91.36l-.66-.14h0c-29.12-5.1-61-5-95.26,2.19a215,215,0,0,0-47.8,16.22,237.89,237.89,0,0,0-88,72.11c-29.93,40-48.36,91.47-45.18,151.27a.76.76,0,0,0,0,.15,269.5,269.5,0,0,0,5.12,39.64c7.59,37,24.07,69.34,47.95,97.5,4.36,5.14,8.88,10.18,13.73,15,59.45,59.55,130.15,78.92,209.9,65.89V448A130.84,130.84,0,0,1,569,453c-3.68-.66-7.25-1.57-10.79-2.51a133.17,133.17,0,0,1-89-77.86,134.4,134.4,0,0,1-8.68-72.2c.47-3.05,1.12-6,1.79-9,12.7-55.88,60.84-96.82,115.92-102.91a128.73,128.73,0,0,1,40.79,2,137,137,0,0,1,47.54,19.76,130.38,130.38,0,0,1,54.14,74.34Z"/></svg>