<svg id="Layer_1" data-name="Layer 1" xmlns="http://www.w3.org/2000/svg" viewBox="0 0 627.45 120.16"><defs><style>.cls-1{fill:#eaab21;}.cls-2{fill:#1a495c;}</style></defs><path class="cls-1" d="M457.86,194.33H439.68c-3.56,0-6.46,3.85-6.46,8.61v12.12c0,4.76,2.9,8.62,6.46,8.62h18.18c3.57,0,6.46-3.86,6.46-8.62V202.94C464.32,198.18,461.43,194.33,457.86,194.33ZM456,209.59,444.66,215a.46.46,0,0,1-.65-.41V203.43a.45.45,0,0,1,.66-.4L456,208.77A.46.46,0,0,1,456,209.59Z" transform="translate(-111.9 -193)"/><path class="cls-1" d="M564.56,194.33h-22.5a2.48,2.48,0,0,0-2.49,2.48v22.51a2.48,2.48,0,0,0,2.49,2.48h22.5a2.48,2.48,0,0,0,2.49-2.48V196.81A2.48,2.48,0,0,0,564.56,194.33Zm-16.49,23.72a.73.73,0,0,1-.72.73h-3.08a.73.73,0,0,1-.72-.73v-12.9a.73.73,0,0,1,.72-.73h3.08a.73.73,0,0,1,.72.73Zm-2.26-14.85a2.93,2.93,0,1,1,2.93-2.92A2.92,2.92,0,0,1,545.81,203.2Zm18.36,14.91a.67.67,0,0,1-.67.67h-3.3a.67.67,0,0,1-.67-.67v-6.05c0-.91.27-4-2.36-4-2,0-2.45,2.09-2.53,3v7a.67.67,0,0,1-.67.67h-3.19a.67.67,0,0,1-.67-.67v-13a.67.67,0,0,1,.67-.67H554a.67.67,0,0,1,.67.67v1.12c.75-1.13,1.88-2,4.27-2,5.29,0,5.26,4.94,5.26,7.65v6.25Z" transform="translate(-111.9 -193)"/><path class="cls-1" d="M345.91,194.33H334a8.8,8.8,0,0,0-8.79,8.79v11.94a8.8,8.8,0,0,0,8.79,8.79h11.94a8.8,8.8,0,0,0,8.79-8.79V203.12A8.8,8.8,0,0,0,345.91,194.33Zm5.82,20.73a5.83,5.83,0,0,1-5.82,5.82H334a5.83,5.83,0,0,1-5.82-5.82V203.12A5.82,5.82,0,0,1,334,197.3h11.94a5.82,5.82,0,0,1,5.82,5.82v11.94Z" transform="translate(-111.9 -193)"/><path class="cls-1" d="M339.94,201.45a7.64,7.64,0,1,0,7.64,7.64A7.65,7.65,0,0,0,339.94,201.45Zm0,12.3a4.67,4.67,0,1,1,4.66-4.66A4.66,4.66,0,0,1,339.94,213.75Z" transform="translate(-111.9 -193)"/><path class="cls-1" d="M347.59,199.68a1.83,1.83,0,1,1-1.83,1.83A1.83,1.83,0,0,1,347.59,199.68Z" transform="translate(-111.9 -193)"/><path class="cls-1" d="M137.61,194.33H115.9a4,4,0,0,0-4,4V220a4,4,0,0,0,4,4h10.71l0-10.62h-2.76a.65.65,0,0,1-.65-.65v-3.42a.65.65,0,0,1,.65-.65h2.75v-3.31c0-3.84,2.34-5.93,5.77-5.93h2.81a.65.65,0,0,1,.65.65V203a.65.65,0,0,1-.65.65h-1.73c-1.86,0-2.22.89-2.22,2.18v2.87h4.09a.65.65,0,0,1,.65.72l-.41,3.43a.64.64,0,0,1-.64.57h-3.67l0,10.62h6.37a4,4,0,0,0,4-4V198.33A4,4,0,0,0,137.61,194.33Z" transform="translate(-111.9 -193)"/><path class="cls-1" d="M737.53,199.92a7.41,7.41,0,0,1-5.1-5.23c-.63-2.16-2.33-1.67-3.81-1.59-1.88.11-1.6,1.65-1.61,2.87,0,2.82,0,5.65,0,8.48h0c0,2.82,0,5.65,0,8.47s-1.25,4.75-4,5.12a4.08,4.08,0,0,1-4.73-3.33c-.71-2.87.79-4.79,3.45-5.35,2.94-.61,2.21-2.67,1.81-4.22-.52-2-2.3-1.08-3.55-.74a9.61,9.61,0,0,0-7,10.71,9.75,9.75,0,0,0,9.44,8.17,9.62,9.62,0,0,0,9.64-8.4,47.27,47.27,0,0,0,.1-7.62c-.15-2.81.44-4,3.49-2.58,1,.46,2.83,1.83,3.43-.51C739.45,202.61,739.81,200.67,737.53,199.92Z" transform="translate(-111.9 -193)"/><path class="cls-1" d="M648.12,195.55c-3.14,1.25-6.27,2.56-9.4,3.85-5.22,2.15-10.45,4.27-15.64,6.49-1.22.51-3.33,1.68-1.1,2.79,3.12,1.55,6.56,3.4,10.28.49,3.17-2.48,6.73-4.48,10.13-6.69l1.28,1.5-7.77,6.52c-2.08,1.75-1.75,3.23.4,4.68,2.45,1.67,4.81,3.47,7.21,5.21,2.64,1.92,4.2,1,4.74-2q1.8-10,3.49-20C652.26,195.33,650.92,194.43,648.12,195.55Z" transform="translate(-111.9 -193)"/><path class="cls-1" d="M228.78,203.22l8.89,11.62a1,1,0,0,0,1.42.34c0-.07,0-.14,0-.17q-4.29-5.76-8.61-11.52C230.07,202.92,229.54,202.94,228.78,203.22Zm4.73-8.89a14.74,14.74,0,1,0,14.71,14.84A14.69,14.69,0,0,0,233.51,194.33Zm4.29,22.53c-.55,0-.78-.39-1.05-.74-.91-1.19-1.86-2.36-2.72-3.58-.57-.79-1-1-1.66-.09-.81,1.07-1.83,2-2.62,3.08a3,3,0,0,1-3.63,1.16c1.27-1.46,2.46-2.82,3.64-4.2,2.19-2.57,2.19-2.57.18-5.24-1.29-1.71-2.6-3.41-3.9-5.12a4.23,4.23,0,0,1-.22-.58c1.64,0,3.12,0,4.6,0,.54,0,.78.36,1.06.72.84,1.11,1.73,2.2,2.53,3.34.48.69.82.71,1.34.06.82-1,1.78-1.91,2.53-3s2-1.36,3.51-1c-1.64,1.89-3.13,3.67-4.71,5.37a1.27,1.27,0,0,0-.08,2c2,2.45,3.8,5,5.92,7.8C240.73,216.86,239.26,216.85,237.8,216.86Z" transform="translate(-111.9 -193)"/><path class="cls-2" d="M457.86,283.45H439.68c-3.56,0-6.46,3.85-6.46,8.61v12.12c0,4.76,2.9,8.61,6.46,8.61h18.18c3.57,0,6.46-3.85,6.46-8.61V292.06C464.32,287.3,461.43,283.45,457.86,283.45ZM456,298.71l-11.34,5.41a.46.46,0,0,1-.65-.41V292.55a.45.45,0,0,1,.66-.4L456,297.89A.46.46,0,0,1,456,298.71Z" transform="translate(-111.9 -193)"/><path class="cls-2" d="M564.56,283.45h-22.5a2.48,2.48,0,0,0-2.49,2.48v22.51a2.48,2.48,0,0,0,2.49,2.48h22.5a2.48,2.48,0,0,0,2.49-2.48V285.93A2.48,2.48,0,0,0,564.56,283.45Zm-16.49,23.72a.73.73,0,0,1-.72.73h-3.08a.73.73,0,0,1-.72-.73v-12.9a.73.73,0,0,1,.72-.73h3.08a.73.73,0,0,1,.72.73Zm-2.26-14.85a2.93,2.93,0,1,1,2.93-2.92A2.92,2.92,0,0,1,545.81,292.32Zm18.36,14.91a.67.67,0,0,1-.67.67h-3.3a.67.67,0,0,1-.67-.67v-6.05c0-.91.27-4-2.36-4-2,0-2.45,2.09-2.53,3v7a.67.67,0,0,1-.67.67h-3.19a.67.67,0,0,1-.67-.67v-13a.67.67,0,0,1,.67-.67H554a.67.67,0,0,1,.67.67v1.12c.75-1.13,1.88-2,4.27-2,5.29,0,5.26,4.95,5.26,7.66v6.25Z" transform="translate(-111.9 -193)"/><path class="cls-2" d="M345.91,283.45H334a8.8,8.8,0,0,0-8.79,8.79v11.94A8.8,8.8,0,0,0,334,313h11.94a8.8,8.8,0,0,0,8.79-8.79V292.24A8.8,8.8,0,0,0,345.91,283.45Zm5.82,20.73a5.83,5.83,0,0,1-5.82,5.82H334a5.83,5.83,0,0,1-5.82-5.82V292.24a5.82,5.82,0,0,1,5.82-5.82h11.94a5.82,5.82,0,0,1,5.82,5.82v11.94Z" transform="translate(-111.9 -193)"/><path class="cls-2" d="M339.94,290.57a7.64,7.64,0,1,0,7.64,7.64A7.65,7.65,0,0,0,339.94,290.57Zm0,12.3a4.67,4.67,0,1,1,4.66-4.66A4.66,4.66,0,0,1,339.94,302.87Z" transform="translate(-111.9 -193)"/><path class="cls-2" d="M347.59,288.8a1.83,1.83,0,1,1-1.83,1.83A1.83,1.83,0,0,1,347.59,288.8Z" transform="translate(-111.9 -193)"/><path class="cls-2" d="M137.61,283.45H115.9a4,4,0,0,0-4,4v21.71a4,4,0,0,0,4,4h10.71l0-10.62h-2.76a.65.65,0,0,1-.65-.65v-3.42a.65.65,0,0,1,.65-.65h2.75v-3.31c0-3.84,2.34-5.93,5.77-5.93h2.81a.65.65,0,0,1,.65.65v2.89a.65.65,0,0,1-.65.65h-1.73c-1.86,0-2.22.89-2.22,2.18v2.87h4.09a.65.65,0,0,1,.65.72l-.41,3.43a.64.64,0,0,1-.64.57h-3.67l0,10.62h6.37a4,4,0,0,0,4-4V287.45A4,4,0,0,0,137.61,283.45Z" transform="translate(-111.9 -193)"/><path class="cls-2" d="M737.53,289a7.41,7.41,0,0,1-5.1-5.23c-.63-2.16-2.33-1.67-3.81-1.59-1.88.11-1.6,1.65-1.61,2.87,0,2.82,0,5.65,0,8.48h0c0,2.82,0,5.65,0,8.47s-1.25,4.75-4,5.12a4.08,4.08,0,0,1-4.73-3.33c-.71-2.87.79-4.79,3.45-5.35,2.94-.62,2.21-2.67,1.81-4.22-.52-2-2.3-1.08-3.55-.74a9.61,9.61,0,0,0-7,10.71,9.75,9.75,0,0,0,9.44,8.17A9.62,9.62,0,0,0,732,304a47.27,47.27,0,0,0,.1-7.62c-.15-2.81.44-4,3.49-2.58,1,.46,2.83,1.83,3.43-.52C739.45,291.73,739.81,289.79,737.53,289Z" transform="translate(-111.9 -193)"/><path class="cls-2" d="M648.12,284.67c-3.14,1.25-6.27,2.56-9.4,3.85-5.22,2.15-10.45,4.27-15.64,6.49-1.22.51-3.33,1.68-1.1,2.79,3.12,1.55,6.56,3.4,10.28.49,3.17-2.48,6.73-4.48,10.13-6.69l1.28,1.5-7.77,6.52c-2.08,1.75-1.75,3.23.4,4.68,2.45,1.67,4.81,3.47,7.21,5.21,2.64,1.92,4.2,1,4.74-2q1.8-10,3.49-20C652.26,284.45,650.92,283.55,648.12,284.67Z" transform="translate(-111.9 -193)"/><path class="cls-2" d="M228.78,292.34,237.67,304a1,1,0,0,0,1.42.34c0-.07,0-.14,0-.17q-4.29-5.76-8.61-11.52C230.07,292,229.54,292.06,228.78,292.34Zm4.73-8.89a14.74,14.74,0,1,0,14.71,14.84A14.69,14.69,0,0,0,233.51,283.45ZM237.8,306c-.55,0-.78-.39-1.05-.74-.91-1.19-1.86-2.36-2.72-3.58-.57-.8-1-1-1.66-.09-.81,1.07-1.83,2-2.62,3.08a3,3,0,0,1-3.63,1.16c1.27-1.46,2.46-2.82,3.64-4.2,2.19-2.57,2.19-2.57.18-5.24-1.29-1.71-2.6-3.41-3.9-5.12a4.07,4.07,0,0,1-.22-.59c1.64,0,3.12,0,4.6,0,.54,0,.78.36,1.06.72.84,1.11,1.73,2.2,2.53,3.34.48.69.82.71,1.34.06.82-1,1.78-1.91,2.53-3s2-1.36,3.51-1c-1.64,1.89-3.13,3.67-4.71,5.37a1.27,1.27,0,0,0-.08,2c2,2.45,3.8,5,5.92,7.8Z" transform="translate(-111.9 -193)"/></svg>