<svg id="Layer_1" data-name="Layer 1" xmlns="http://www.w3.org/2000/svg" viewBox="0 0 841.89 595.28"><defs><style>.cls-1,.cls-4{font-size:45.97px;font-family:TwCenMT-CondensedBold, Tw Cen MT Condensed;font-weight:700;letter-spacing:0.84em;}.cls-1,.cls-3{fill:#eaab21;}.cls-2{letter-spacing:0.81em;}.cls-4,.cls-5{fill:#1a495c;}</style></defs><text class="cls-1" transform="translate(262.03 199.4)">ALM<tspan class="cls-2" x="185.33" y="0">A</tspan><tspan x="245.75" y="0">CON</tspan></text><path class="cls-3" d="M207.65,214.86c0,1.12,0,2.23,0,3.34h44c0-1.11,0-2.22,0-3.34Z"/><path class="cls-3" d="M253.61,224.26c0-.19,0-.37,0-.58,0-.91,0-1.82,0-2.73h-48c0,.85,0,1.69,0,2.54,0,.28,0,.52,0,.77Z"/><path class="cls-3" d="M249.56,208.78H209.67c0,1.12,0,2.24,0,3.36h39.92C249.58,211,249.56,209.9,249.56,208.78Z"/><path class="cls-3" d="M141.59,110.93v13.26l16.31-13.26Z"/><path class="cls-3" d="M240.16,156a52.8,52.8,0,0,0-10.45-18.75,51.65,51.65,0,0,0-30.2-17.44l-.15,0h0a56.83,56.83,0,0,0-21.5.49,48.57,48.57,0,0,0-10.79,3.66,53.78,53.78,0,0,0-19.87,16.28A51.64,51.64,0,0,0,137,174.33v0a61,61,0,0,0,1.16,8.95,48.65,48.65,0,0,0,10.82,22c1,1.16,2,2.3,3.1,3.4,13.42,13.44,29.38,17.81,47.38,14.87v-23.3a29.62,29.62,0,0,1-15.08,1.14c-.83-.15-1.64-.36-2.44-.57a30.24,30.24,0,0,1-22-33.88c.1-.68.25-1.36.4-2a30.44,30.44,0,0,1,26.17-23.24,29.26,29.26,0,0,1,9.21.45,30.87,30.87,0,0,1,10.73,4.46,29.7,29.7,0,0,1,13.36,24.42c0,.28,0,.54,0,.82q0,17.73,0,35.45h2.58c.79-.3,1.57-.62,2.37-.9a.52.52,0,0,0,.41-.59q0-13.05,0-26.11c0-2.19,0-4.39,0-6.58a.58.58,0,0,1,.39-.64c.67-.29,1.33-.62,2-.95.22-.11.3-.06.28.18a2.8,2.8,0,0,0,0,.29v35.3h1.73s0-.11,0-.18c0-1.64,0-3.28,0-4.92,0-4.4,0-8.79,0-13.18,0-4.1,0-8.2,0-12.3,0-2.29,0-4.59,0-6.88,0-.58,0-.58-.51-.33l-3.54,1.72c-.25.12-.36.14-.35-.2q0-.92,0-1.83a.38.38,0,0,1,.29-.42c1.24-.47,2.47-1,3.7-1.45a.9.9,0,0,0,.39-1.09c-.09-.15-.19,0-.29,0-.54.21-1.09.42-1.63.65-.23.1-.34,0-.3-.21v-.13c0-.51-.16-1.11.07-1.5s.92-.53,1.43-.69a1.2,1.2,0,0,0,1-1.24c.12-1.79.35-3.57.54-5.36l.51-4.68H231l.21,1.91c.24,2.39.48,4.77.73,7.16.05.47.11.93.14,1.4a.59.59,0,0,0,.44.61c.55.2,1.08.45,1.62.66a.46.46,0,0,1,.36.52c0,.44,0,.88,0,1.33,0,.3-.09.31-.33.21l-1.6-.64c-.24-.1-.31-.05-.32.21,0,.68,0,.68.6,1,1.23.55,2.45,1.12,3.68,1.68a.41.41,0,0,1,.3.43c0,.51,0,1,0,1.54,0,.29-.1.28-.32.17l-3.77-1.78c-.44-.21-.44-.21-.44.28q0,7.67,0,15.33l0,21.91v.33H234s0,0,0-.07a1.92,1.92,0,0,0,0-.24V171.67c0-.17.06-.23.23-.15l2.45,1.06c.21.09.16.27.16.43v22.78c0,3.36,0,6.71,0,10.07a.54.54,0,0,0,.42.63c.73.25,1.45.55,2.18.83h3q0-6.16,0-12.32c0-7.93,0-15.87,0-23.8A51,51,0,0,0,240.16,156Z"/><path class="cls-3" d="M268.65,161.91l4.82-10.63a4.36,4.36,0,0,1-4.28-4.74v-2.83h3.95v2.07a2.72,2.72,0,0,0,.62,2,2.91,2.91,0,0,0,2.08.61h3.08l-6,13.51Zm9.58,0a16.76,16.76,0,0,0-.34-3.59,5.11,5.11,0,0,0-.93-2.11,4.15,4.15,0,0,0-1.56-1.16l1.41-3a7.45,7.45,0,0,1,3.09,1.82,7.7,7.7,0,0,1,1.86,3.21,16.47,16.47,0,0,1,.65,4.86Z"/><path class="cls-3" d="M289,161.91a47.31,47.31,0,0,1,.91-6.32,17.55,17.55,0,0,1,1.46-4.18,7.77,7.77,0,0,1,2-2.54,8.56,8.56,0,0,1,2.59-1.36l-1.73-3.8h4.3l8.36,18.2h-4.28l-5.25-11.49a3.15,3.15,0,0,0-1.43.63,4.73,4.73,0,0,0-1.13,1.26,5.63,5.63,0,0,0-.68,1.62h.57a4.58,4.58,0,0,1,3.13,1,3.54,3.54,0,0,1,1.15,2.82,3.61,3.61,0,0,1-1.43,3.13,7.14,7.14,0,0,1-4.18,1Zm4.12-2.75h.39a3.15,3.15,0,0,0,1.55-.3,1.1,1.1,0,0,0,.51-1.05,1,1,0,0,0-.42-.88,2.14,2.14,0,0,0-1.16-.27h-.53c-.05.22-.1.48-.14.78s-.08.59-.12.89S293.13,158.9,293.11,159.16Z"/><path class="cls-3" d="M327.67,161.91l3.8-8.64h-.64a4.72,4.72,0,0,1-3.33-1,4,4,0,0,1-1.05-3,9.61,9.61,0,0,1,.07-1.19,10.71,10.71,0,0,1,.23-1.21H324.3v6.37a10.66,10.66,0,0,1-2.82,1.74,8.61,8.61,0,0,1-3.34.66,5.92,5.92,0,0,1-4.09-1.35,5,5,0,0,1-1.52-3.93,6.82,6.82,0,0,1,.88-3.53,5.9,5.9,0,0,1,2.52-2.26,8.85,8.85,0,0,1,3.94-.81h12.74a5.75,5.75,0,0,1,3.79,1,3.66,3.66,0,0,1,1.18,2.93,6.29,6.29,0,0,1-.35,2c-.24.71-.56,1.51-1,2.41l-4.3,9.89Zm-9.15-9.61a2.85,2.85,0,0,0,.91-.14,4,4,0,0,0,.72-.34v-5h-.36a3.07,3.07,0,0,0-2.29.82,3.37,3.37,0,0,0-.81,2.47,2.29,2.29,0,0,0,.52,1.67A1.76,1.76,0,0,0,318.52,152.3Zm13.86-2.17h.44l.17-.4a5.75,5.75,0,0,0,.35-1,3.79,3.79,0,0,0,.11-.82,1,1,0,0,0-.34-.81,1.45,1.45,0,0,0-1-.31h-1.27a8.64,8.64,0,0,0-.23,1,4.78,4.78,0,0,0-.08.84,1.41,1.41,0,0,0,.46,1.17A2.26,2.26,0,0,0,332.38,150.13Z"/><path class="cls-3" d="M347,150.11a4.53,4.53,0,0,1-2.26-1.82,6.31,6.31,0,0,1-.8-3.43v-2.32h4.13v2.3a4.23,4.23,0,0,0,.3,1.71,2.07,2.07,0,0,0,.87,1Zm3.43,11.8h-4.15v-9.1a7.32,7.32,0,0,1,.69-3.31,4.58,4.58,0,0,1,2.08-2.09,9,9,0,0,1,7.13.05,4.83,4.83,0,0,1,2.09,2.13,7,7,0,0,1,.68,3.17v3.11h-4.16v-2.78a4,4,0,0,0-.48-2.11,1.84,1.84,0,0,0-1.68-.77,1.94,1.94,0,0,0-1.69.71,3.71,3.71,0,0,0-.51,2.15Z"/><path class="cls-3" d="M370.89,161.91l4.28-9.43H372v-3.21a4.13,4.13,0,0,0-.3-1.79,1.52,1.52,0,0,0-.9-.77,4.43,4.43,0,0,0-1.4-.19h-.1a3.61,3.61,0,0,1-1,1.4,2.7,2.7,0,0,1-1.76.51h-.69l1.1-4.72h2.8a10.24,10.24,0,0,1,3.73.56,3.72,3.72,0,0,1,2,1.74,6.42,6.42,0,0,1,.62,3v.26h4.66l-5.63,12.64Z"/><text class="cls-4" transform="translate(262.03 473.2)">ALM<tspan class="cls-2" x="185.33" y="0">A</tspan><tspan x="245.75" y="0">CON</tspan></text><path class="cls-5" d="M207.65,488.66c0,1.12,0,2.23,0,3.34h44c0-1.11,0-2.22,0-3.34Z"/><path class="cls-5" d="M253.61,498.06c0-.19,0-.37,0-.58,0-.91,0-1.82,0-2.73h-48c0,.85,0,1.69,0,2.54,0,.28,0,.52,0,.77Z"/><path class="cls-5" d="M249.56,482.58H209.67c0,1.12,0,2.24,0,3.36h39.92C249.58,484.82,249.56,483.7,249.56,482.58Z"/><path class="cls-5" d="M141.59,384.73V398l16.31-13.26Z"/><path class="cls-5" d="M240.16,429.77A52.8,52.8,0,0,0,229.71,411a51.65,51.65,0,0,0-30.2-17.44l-.15,0h0a56.83,56.83,0,0,0-21.5.49,48.57,48.57,0,0,0-10.79,3.66A53.78,53.78,0,0,0,147.2,414,51.64,51.64,0,0,0,137,448.13v0a61,61,0,0,0,1.16,8.95,48.65,48.65,0,0,0,10.82,22c1,1.16,2,2.3,3.1,3.4,13.42,13.44,29.38,17.81,47.38,14.87v-23.3a29.62,29.62,0,0,1-15.08,1.14c-.83-.15-1.64-.36-2.44-.57a30.24,30.24,0,0,1-22-33.88c.1-.68.25-1.36.4-2a30.44,30.44,0,0,1,26.17-23.24,29.26,29.26,0,0,1,9.21.45,30.87,30.87,0,0,1,10.73,4.46,29.71,29.71,0,0,1,4.89,4,30,30,0,0,1,8.47,20.39c0,.28,0,.54,0,.82q0,17.73,0,35.45h2.58c.79-.3,1.57-.62,2.37-.9a.52.52,0,0,0,.41-.59q0-13.06,0-26.11c0-2.19,0-4.39,0-6.59a.57.57,0,0,1,.39-.63c.67-.29,1.33-.62,2-.95.22-.11.3-.06.28.18a2.81,2.81,0,0,0,0,.29v35.3h1.73c0-.05,0-.11,0-.18,0-1.64,0-3.28,0-4.92,0-4.4,0-8.79,0-13.18,0-4.1,0-8.2,0-12.3,0-2.29,0-4.59,0-6.88,0-.58,0-.58-.51-.33l-3.54,1.72c-.25.12-.36.14-.35-.2q0-.92,0-1.83a.38.38,0,0,1,.29-.42c1.24-.47,2.47-1,3.7-1.45a.9.9,0,0,0,.39-1.09c-.09-.15-.19-.05-.29,0-.54.21-1.09.42-1.63.65-.23.1-.34.05-.3-.21v-.13c0-.51-.16-1.12.07-1.5s.92-.53,1.43-.69a1.2,1.2,0,0,0,1-1.24c.12-1.79.35-3.57.54-5.36l.51-4.68H231l.21,1.91c.24,2.39.48,4.77.73,7.16.05.47.11.93.14,1.4a.59.59,0,0,0,.44.61c.55.2,1.08.45,1.62.66a.46.46,0,0,1,.36.52c0,.44,0,.88,0,1.33,0,.3-.09.31-.33.21-.53-.23-1.07-.42-1.6-.64-.24-.1-.31-.05-.32.21,0,.68,0,.68.6,1,1.23.55,2.45,1.12,3.68,1.68a.41.41,0,0,1,.3.43c0,.51,0,1,0,1.54,0,.29-.1.27-.32.17l-3.77-1.78c-.44-.21-.44-.21-.44.28q0,7.67,0,15.33l0,21.91v.33H234s0,0,0-.07a1.92,1.92,0,0,0,0-.24V445.47c0-.17.06-.23.23-.15l2.45,1.06c.21.09.16.27.16.43v22.78c0,3.36,0,6.71,0,10.07a.54.54,0,0,0,.42.63c.73.25,1.45.55,2.18.83h3q0-6.17,0-12.32c0-7.93,0-15.87,0-23.8A51,51,0,0,0,240.16,429.77Z"/><path class="cls-5" d="M268.65,435.71l4.82-10.63a4.36,4.36,0,0,1-4.28-4.74v-2.83h3.95v2.07a2.72,2.72,0,0,0,.62,2,2.91,2.91,0,0,0,2.08.61h3.08l-6,13.51Zm9.58,0a16.76,16.76,0,0,0-.34-3.59A5.11,5.11,0,0,0,277,430a4.15,4.15,0,0,0-1.56-1.16l1.41-3a7.45,7.45,0,0,1,3.09,1.82,7.7,7.7,0,0,1,1.86,3.21,16.47,16.47,0,0,1,.65,4.86Z"/><path class="cls-5" d="M289,435.71a47.31,47.31,0,0,1,.91-6.32,17.55,17.55,0,0,1,1.46-4.18,7.77,7.77,0,0,1,2-2.54,8.56,8.56,0,0,1,2.59-1.36l-1.73-3.8h4.3l8.36,18.2h-4.28l-5.25-11.49a3.15,3.15,0,0,0-1.43.63,4.73,4.73,0,0,0-1.13,1.26,5.63,5.63,0,0,0-.68,1.62h.57a4.58,4.58,0,0,1,3.13,1,3.54,3.54,0,0,1,1.15,2.82,3.61,3.61,0,0,1-1.43,3.13,7.14,7.14,0,0,1-4.18,1Zm4.12-2.75h.39a3.15,3.15,0,0,0,1.55-.3,1.1,1.1,0,0,0,.51-1.05,1,1,0,0,0-.42-.88,2.14,2.14,0,0,0-1.16-.27h-.53c-.05.22-.1.48-.14.78s-.08.59-.12.89S293.13,432.7,293.11,433Z"/><path class="cls-5" d="M327.67,435.71l3.8-8.64h-.64a4.72,4.72,0,0,1-3.33-1,4,4,0,0,1-1.05-3,9.61,9.61,0,0,1,.07-1.19,10.71,10.71,0,0,1,.23-1.21H324.3V427a10.66,10.66,0,0,1-2.82,1.74,8.61,8.61,0,0,1-3.34.66,5.92,5.92,0,0,1-4.09-1.35,5,5,0,0,1-1.52-3.93,6.82,6.82,0,0,1,.88-3.53,5.9,5.9,0,0,1,2.52-2.26,8.85,8.85,0,0,1,3.94-.81h12.74a5.75,5.75,0,0,1,3.79,1,3.66,3.66,0,0,1,1.18,2.93,6.29,6.29,0,0,1-.35,2c-.24.71-.56,1.51-1,2.41l-4.3,9.89Zm-9.15-9.61a2.85,2.85,0,0,0,.91-.14,4,4,0,0,0,.72-.34v-5h-.36a3.07,3.07,0,0,0-2.29.82,3.37,3.37,0,0,0-.81,2.47,2.29,2.29,0,0,0,.52,1.67A1.76,1.76,0,0,0,318.52,426.1Zm13.86-2.17h.44l.17-.4a5.75,5.75,0,0,0,.35-1,3.79,3.79,0,0,0,.11-.82,1,1,0,0,0-.34-.81,1.45,1.45,0,0,0-1-.31h-1.27a9.08,9.08,0,0,0-.23.94,5,5,0,0,0-.08.85,1.41,1.41,0,0,0,.46,1.17A2.26,2.26,0,0,0,332.38,423.93Z"/><path class="cls-5" d="M347,423.91a4.53,4.53,0,0,1-2.26-1.82,6.31,6.31,0,0,1-.8-3.43v-2.32h4.13v2.3a4.23,4.23,0,0,0,.3,1.71,2.12,2.12,0,0,0,.87,1Zm3.43,11.8h-4.15v-9.1a7.32,7.32,0,0,1,.69-3.31,4.58,4.58,0,0,1,2.08-2.09,8.9,8.9,0,0,1,7.13.05,4.83,4.83,0,0,1,2.09,2.13,7,7,0,0,1,.68,3.17v3.11h-4.16v-2.78a4,4,0,0,0-.48-2.11,1.84,1.84,0,0,0-1.68-.77,1.94,1.94,0,0,0-1.69.71,3.71,3.71,0,0,0-.51,2.15Z"/><path class="cls-5" d="M370.89,435.71l4.28-9.43H372v-3.21a4.13,4.13,0,0,0-.3-1.79,1.52,1.52,0,0,0-.9-.77,4.43,4.43,0,0,0-1.4-.19h-.1a3.61,3.61,0,0,1-1,1.4,2.7,2.7,0,0,1-1.76.51h-.69l1.1-4.72h2.8a10.24,10.24,0,0,1,3.73.56,3.72,3.72,0,0,1,2,1.74,6.42,6.42,0,0,1,.62,3v.26h4.66l-5.63,12.64Z"/></svg>